<?xml version="1.0" encoding="UTF-8"?>
<svg version="1.1" xmlns="http://www.w3.org/2000/svg" width="200" height="200">
<path d="M0 0 C66 0 132 0 200 0 C200 66 200 132 200 200 C134 200 68 200 0 200 C0 134 0 68 0 0 Z " fill="#FEFEFE" transform="translate(0,0)"/>
<path d="M0 0 C4.02264332 2.32201363 6.49531841 4.54923191 8.4375 8.875 C8.6875 12.25 8.6875 12.25 8.4375 14.875 C9.19675781 14.6584375 9.95601562 14.441875 10.73828125 14.21875 C11.73214844 13.9403125 12.72601563 13.661875 13.75 13.375 C14.73613281 13.0965625 15.72226563 12.818125 16.73828125 12.53125 C19.4375 11.875 19.4375 11.875 22.4375 11.875 C23.24706938 27.88648325 23.24706938 27.88648325 18.4375 33.875 C13.63301361 38.92021222 9.27572945 42.48062995 2.16796875 43.2109375 C-6.38135727 43.30519688 -12.25559845 42.98001554 -18.5625 36.96875 C-21.74215541 33.53267077 -23.40431091 31.50775636 -24.5625 26.875 C-28.1925 27.535 -31.8225 28.195 -35.5625 28.875 C-37.57827886 22.82766342 -37.20550037 17.55927934 -34.5625 11.75 C-27.47509664 -1.17645727 -13.70418828 -6.32344593 0 0 Z " fill="#020285" transform="translate(58.5625,81.125)"/>
<path d="M0 0 C3.1875 1.5 3.1875 1.5 5 3 C5 2.34 5 1.68 5 1 C9.29 1 13.58 1 18 1 C18 13.54 18 26.08 18 39 C13.71 39 9.42 39 5 39 C4.67 38.34 4.34 37.68 4 37 C3.01 37.66 2.02 38.32 1 39 C-4.29485592 39.81849346 -9.65889558 40.19045341 -14.52734375 37.71484375 C-19.99359694 33.24615632 -22.4370276 28.46814804 -23.30859375 21.55078125 C-23.61209162 15.54520216 -22.65269522 10.84266676 -19 6 C-13.53121034 -0.0221025 -7.9463452 -1.30369726 0 0 Z " fill="#0B0B83" transform="translate(160,85)"/>
<path d="M0 0 C4.03885934 2.33414598 6.45003275 4.55441902 8.4375 8.875 C8.80902351 11.20255791 9.14718918 13.53592429 9.4375 15.875 C8.00869507 16.30582886 8.00869507 16.30582886 6.55102539 16.74536133 C2.9778756 17.82315427 -0.5947532 18.90266558 -4.16723633 19.98266602 C-5.70615976 20.44764476 -7.24521943 20.91217287 -8.78442383 21.3762207 C-11.01160127 22.04777145 -13.23835169 22.72071182 -15.46484375 23.39453125 C-16.18223724 23.61142609 -16.89963074 23.82832092 -17.63876343 24.05178833 C-21.43017668 25.20446483 -25.19438442 26.40769208 -28.94140625 27.69921875 C-32.5625 28.875 -32.5625 28.875 -35.5625 28.875 C-37.57827886 22.82766342 -37.20550037 17.55927934 -34.5625 11.75 C-27.47509664 -1.17645727 -13.70418828 -6.32344593 0 0 Z " fill="#1165FA" transform="translate(58.5625,81.125)"/>
<path d="M0 0 C0 3.3 0 6.6 0 10 C2.64 10 5.28 10 8 10 C8 13.96 8 17.92 8 22 C5.36 22 2.72 22 0 22 C0.33 26.29 0.66 30.58 1 35 C4.465 35.495 4.465 35.495 8 36 C8 39.96 8 43.92 8 48 C-4.05357143 48.53571429 -4.05357143 48.53571429 -7.625 46.25 C-10.36224649 43.65681911 -11.81851337 41.68372757 -12.22705078 37.89355469 C-12.21134033 36.79382324 -12.21134033 36.79382324 -12.1953125 35.671875 C-12.18564453 34.47304687 -12.18564453 34.47304687 -12.17578125 33.25 C-12.15902344 32.425 -12.14226562 31.6 -12.125 30.75 C-12.11597656 29.90953125 -12.10695313 29.0690625 -12.09765625 28.203125 C-12.07415817 26.13529396 -12.03828908 24.06761005 -12 22 C-13.98 22 -15.96 22 -18 22 C-18 18.04 -18 14.08 -18 10 C-16.02 10 -14.04 10 -12 10 C-12 7.69 -12 5.38 -12 3 C-10.75336669 2.49166409 -9.50250613 1.99368855 -8.25 1.5 C-7.55390625 1.2215625 -6.8578125 0.943125 -6.140625 0.65625 C-4 0 -4 0 0 0 Z " fill="#040383" transform="translate(126,76)"/>
<path d="M0 0 C3.3 0 6.6 0 10 0 C10 11.88 10 23.76 10 36 C5.33333333 36 0.66666667 36 -4 36 C-4.99 36.495 -4.99 36.495 -6 37 C-18.39228558 38.19814916 -18.39228558 38.19814916 -22.8125 34.875 C-25 32 -25 32 -25.375 28.6875 C-25.25125 27.800625 -25.1275 26.91375 -25 26 C-23.68 25.67 -22.36 25.34 -21 25 C-21.61277612 22.03824877 -22.25372522 20.61941217 -24 18 C-22.68 17.67 -21.36 17.34 -20 17 C-19.608125 17.763125 -19.21625 18.52625 -18.8125 19.3125 C-16.70282619 22.44063702 -15.5178347 23.62345599 -12 25 C-8.17702944 24.9867488 -4.44611266 24.72305633 -1 23 C0.66302468 18.2929594 1.46776917 13.84363826 0 9 C0 8.34 0 7.68 0 7 C-0.78375 6.9175 -1.5675 6.835 -2.375 6.75 C-5 6 -5 6 -6.3125 3.9375 C-6.539375 3.298125 -6.76625 2.65875 -7 2 C-6.38125 2.350625 -5.7625 2.70125 -5.125 3.0625 C-4.42375 3.371875 -3.7225 3.68125 -3 4 C-2.34 3.67 -1.68 3.34 -1 3 C-0.67 2.01 -0.34 1.02 0 0 Z " fill="#020283" transform="translate(167,87)"/>
<path d="M0 0 C0 11.88 0 23.76 0 36 C-3.96 36 -7.92 36 -12 36 C-12 24.78 -12 13.56 -12 2 C-5 0 -5 0 0 0 Z " fill="#000084" transform="translate(103,87)"/>
<path d="M0 0 C5.2257281 1.61914182 8.92089255 3.78929408 12.5625 7.875 C14.13802389 11.30005194 14.53809792 14.27838894 15 18 C12.23208055 18.86478781 9.46134374 19.71711674 6.6875 20.5625 C5.90181641 20.80935547 5.11613281 21.05621094 4.30664062 21.31054688 C3.1706543 21.65375977 3.1706543 21.65375977 2.01171875 22.00390625 C1.31522217 22.21861572 0.61872559 22.4333252 -0.09887695 22.65454102 C-2 23 -2 23 -5 22 C-5 21.01 -5 20.02 -5 19 C-4.34 18.67 -3.68 18.34 -3 18 C-2.67 17.01 -2.34 16.02 -2 15 C-1.34 15 -0.68 15 0 15 C0 11.7 0 8.4 0 5 C-0.99 5.99 -1.98 6.98 -3 8 C-3.66 8.66 -4.32 9.32 -5 10 C-5 7.69 -5 5.38 -5 3 C-8.63 2.67 -12.26 2.34 -16 2 C-11.07244418 -1.28503721 -5.75188691 -0.63401481 0 0 Z " fill="#4F8BF8" transform="translate(53,79)"/>
<path d="M0 0 C3.28921342 0.2279043 4.2372848 0.74271221 7.125 2.6875 C9.0625 5.625 9.0625 5.625 9.1875 9.1875 C7.84490253 13.28988116 6.88375828 14.63130003 3.0625 16.625 C-1.26164626 16.70086222 -3.17732906 16.32669625 -6.375 13.375 C-8.10805778 10.32481831 -8.62290561 9.05202806 -7.9375 5.625 C-5.74065908 1.50592328 -4.66717368 0.74082122 0 0 Z " fill="#EFF0F9" transform="translate(156.9375,96.375)"/>
<path d="M0 0 C0 11.88 0 23.76 0 36 C-3.96 36 -7.92 36 -12 36 C-12 24.78 -12 13.56 -12 2 C-5 0 -5 0 0 0 Z M-8.48095703 4.76269531 C-11.75634534 9.58681271 -10.69271184 15.78277575 -10.4375 21.375 C-10.40591797 22.68339844 -10.37433594 23.99179688 -10.34179688 25.33984375 C-10.2594741 28.56219246 -10.14451838 31.77993991 -10 35 C-5.99745544 35.09181134 -5.99745544 35.09181134 -2 35 C-0.6378818 33.86492192 -0.6378818 33.86492192 -0.88647461 30.85717773 C-0.88663367 29.46597303 -0.89232494 28.07476239 -0.90234375 26.68359375 C-0.9037587 25.95253922 -0.90517365 25.22148468 -0.90663147 24.46827698 C-0.91224592 22.12464368 -0.92480078 19.78110461 -0.9375 17.4375 C-0.94251314 15.85221492 -0.94707637 14.26692834 -0.95117188 12.68164062 C-0.96222003 8.7877239 -0.97949428 4.89387795 -1 1 C-4.27276931 1 -6.08392933 2.64843857 -8.48095703 4.76269531 Z " fill="#070565" transform="translate(103,87)"/>
<path d="M0 0 C6 3.6 6 3.6 8 8 C8.6875 11.8125 8.6875 11.8125 9 15 C6.36 15.33 3.72 15.66 1 16 C0.67 10.72 0.34 5.44 0 0 Z " fill="#84ACF8" transform="translate(59,82)"/>
<path d="M0 0 C-2 3 -2 3 -4.0625 3.9375 C-6.20813364 4.82025093 -6.20813364 4.82025093 -6.625 7.0625 C-6.74875 7.701875 -6.8725 8.34125 -7 9 C-9.70879335 10.35439668 -12.00933268 10.06501451 -15 10 C-15 13.3 -15 16.6 -15 20 C-13.68 20.33 -12.36 20.66 -11 21 C-12.65 21 -14.3 21 -16 21 C-16 17.04 -16 13.08 -16 9 C-14.02 9 -12.04 9 -10 9 C-10 6.69 -10 4.38 -10 2 C-6.49223216 0.39644899 -3.85645121 -0.22036864 0 0 Z " fill="#090775" transform="translate(124,77)"/>
<path d="M0 0 C-0.598125 0.2475 -1.19625 0.495 -1.8125 0.75 C-4.28777159 2.16444091 -5.33430804 3.72860188 -7 6 C-7.66 6 -8.32 6 -9 6 C-9 15.24 -9 24.48 -9 34 C-9.33 34 -9.66 34 -10 34 C-10.07418046 29.64009127 -10.12861544 25.28051721 -10.16479492 20.92016602 C-10.17987768 19.43702801 -10.20034689 17.95393456 -10.22631836 16.47094727 C-10.26272616 14.33859255 -10.27973073 12.20682765 -10.29296875 10.07421875 C-10.3086792 8.79119873 -10.32438965 7.50817871 -10.34057617 6.1862793 C-10 3 -10 3 -8.66918945 1.12036133 C-5.49222021 -1.01202303 -3.52504884 -1.09398067 0 0 Z " fill="#07057A" transform="translate(102,88)"/>
<path d="M0 0 C3.875 1.75 3.875 1.75 5 4 C5.23172827 6.54615009 5.41894529 9.07396225 5.5625 11.625 C5.60568359 12.33140625 5.64886719 13.0378125 5.69335938 13.765625 C5.79944751 15.51018537 5.90022889 17.25506697 6 19 C4.35 18.67 2.7 18.34 1 18 C1.01160156 16.95199219 1.02320313 15.90398437 1.03515625 14.82421875 C1.04453655 13.44531428 1.0536365 12.06640789 1.0625 10.6875 C1.07087891 9.99720703 1.07925781 9.30691406 1.08789062 8.59570312 C1.10307906 5.4516975 1.00193327 3.00579981 0 0 Z " fill="#679AF7" transform="translate(55,80)"/>
<path d="M0 0 C1.08667969 0.01804687 2.17335938 0.03609375 3.29296875 0.0546875 C4.54013672 0.08949219 4.54013672 0.08949219 5.8125 0.125 C5.8125 0.785 5.8125 1.445 5.8125 2.125 C6.4725 2.125 7.1325 2.125 7.8125 2.125 C6.79555687 5.17582939 6.09105788 6.02872675 3.8125 8.125 C3.1525 8.785 2.4925 9.445 1.8125 10.125 C1.8125 7.815 1.8125 5.505 1.8125 3.125 C-1.8175 2.795 -5.4475 2.465 -9.1875 2.125 C-5.66070901 -0.22619399 -4.15870515 -0.08943452 0 0 Z " fill="#3271DF" transform="translate(46.1875,78.875)"/>
<path d="M0 0 C0.66 0 1.32 0 2 0 C2.75195822 14.87206266 2.75195822 14.87206266 -2 22 C-2.66 22.33 -3.32 22.66 -4 23 C-4.1875 20.625 -4.1875 20.625 -4 18 C-3.01 17.34 -2.02 16.68 -1 16 C-0.41390475 13.51501799 -0.41390475 13.51501799 -0.3125 10.6875 C-0.24675781 9.74261719 -0.18101563 8.79773438 -0.11328125 7.82421875 C-0.00850413 5.21201679 0.0238061 2.61390996 0 0 Z " fill="#100E72" transform="translate(79,93)"/>
<path d="M0 0 C4.5 4.5 4.5 4.5 5.25 8.75 C5.39953125 9.54921875 5.5490625 10.3484375 5.703125 11.171875 C5.80109375 11.77515625 5.8990625 12.3784375 6 13 C4.35 12.67 2.7 12.34 1 12 C0.67 8.04 0.34 4.08 0 0 Z " fill="#A9C3F8" transform="translate(62,84)"/>
<path d="M0 0 C0.66 0.99 1.32 1.98 2 3 C-0.64 4.98 -3.28 6.96 -6 9 C-6.33 7.68 -6.66 6.36 -7 5 C-4.78132865 2.22666082 -3.39379675 1.13126558 0 0 Z " fill="#0A097F" transform="translate(73,114)"/>
<path d="M0 0 C0 0.66 0 1.32 0 2 C-1.02480469 1.98839844 -2.04960938 1.97679688 -3.10546875 1.96484375 C-4.466144 1.95545978 -5.82682124 1.94636023 -7.1875 1.9375 C-7.86103516 1.92912109 -8.53457031 1.92074219 -9.22851562 1.91210938 C-12.95434131 1.89393462 -16.3788042 2.10700608 -20 3 C-20 2.34 -20 1.68 -20 1 C-17.94077867 0.46635113 -15.87743893 -0.05142189 -13.8125 -0.5625 C-12.08966797 -0.99755859 -12.08966797 -0.99755859 -10.33203125 -1.44140625 C-6.32236335 -2.11360145 -3.61806468 -1.80903234 0 0 Z " fill="#DCF1FE" transform="translate(55,78)"/>
<path d="M0 0 C0.33 0 0.66 0 1 0 C1.33 2.97 1.66 5.94 2 9 C-0.31 9.33 -2.62 9.66 -5 10 C-5 8.68 -5 7.36 -5 6 C-4.34 5.67 -3.68 5.34 -3 5 C-2.67 4.01 -2.34 3.02 -2 2 C-1.34 2 -0.68 2 0 2 C0 1.34 0 0.68 0 0 Z " fill="#397BF8" transform="translate(53,92)"/>
<path d="M0 0 C-0.66 0 -1.32 0 -2 0 C-2 1.32 -2 2.64 -2 4 C-2.99 4 -3.98 4 -5 4 C-5 4.66 -5 5.32 -5 6 C-5.66 6 -6.32 6 -7 6 C-7.33 4.35 -7.66 2.7 -8 1 C-4.93251126 -0.86240388 -3.40254489 -1.2151946 0 0 Z " fill="#080D8F" transform="translate(42,106)"/>
<path d="M0 0 C0.33 0 0.66 0 1 0 C1 3.96 1 7.92 1 12 C-1.31 12 -3.62 12 -6 12 C-4.68 11.67 -3.36 11.34 -2 11 C-2.04125 10.113125 -2.0825 9.22625 -2.125 8.3125 C-2.00102754 5.02722987 -1.38612096 2.94550705 0 0 Z " fill="#110D78" transform="translate(133,86)"/>
<path d="M0 0 C0.66 0 1.32 0 2 0 C2.33 0.99 2.66 1.98 3 3 C1.625 5.0625 1.625 5.0625 0 7 C-0.33 7.66 -0.66 8.32 -1 9 C-2.5625 7.75 -2.5625 7.75 -4 6 C-3.6875 3.8125 -3.6875 3.8125 -3 2 C-2.01 2 -1.02 2 0 2 C0 1.34 0 0.68 0 0 Z " fill="#08087C" transform="translate(40,108)"/>
<path d="M0 0 C0.33 0 0.66 0 1 0 C1.33 3.96 1.66 7.92 2 12 C2.66 12 3.32 12 4 12 C4.33 14.31 4.66 16.62 5 19 C1.84856006 16.42154914 0.92881512 13.92960244 0 10 C-0.15481878 6.6589109 -0.11887697 3.34176379 0 0 Z " fill="#21207A" transform="translate(137,99)"/>
<path d="M0 0 C1.98 0 3.96 0 6 0 C4.98305687 3.05082939 4.27855788 3.90372675 2 6 C1.34 6.66 0.68 7.32 0 8 C0 5.36 0 2.72 0 0 Z " fill="#2E79FB" transform="translate(48,81)"/>
<path d="M0 0 C-0.66 1.32 -1.32 2.64 -2 4 C-5.3 4 -8.6 4 -12 4 C-8.36043372 1.57362248 -4.44144233 0 0 0 Z " fill="#121A8A" transform="translate(70,96)"/>
<path d="M0 0 C1.2077558 3.62326739 0.54311128 4.64146369 -1 8 C-1.99 7.67 -2.98 7.34 -4 7 C-2.92598892 4.08482708 -2.22189824 2.22189824 0 0 Z " fill="#115EE6" transform="translate(29,86)"/>
<path d="M0 0 C0 0.99 0 1.98 0 3 C-1.96466413 4.06775224 -3.96855359 5.06553465 -6 6 C-6.66 5.67 -7.32 5.34 -8 5 C-2.25 0 -2.25 0 0 0 Z " fill="#17167E" transform="translate(149,86)"/>
<path d="M0 0 C0.66 0 1.32 0 2 0 C2 2.97 2 5.94 2 9 C0.35 9.66 -1.3 10.32 -3 11 C-2.505 10.29875 -2.01 9.5975 -1.5 8.875 C0.1936681 5.62880281 0.25162315 3.60659844 0 0 Z " fill="#0B0976" transform="translate(165,101)"/>
<path d="M0 0 C0.99 0 1.98 0 3 0 C3.33 0.99 3.66 1.98 4 3 C3.67 3.66 3.34 4.32 3 5 C-0.0625 5.625 -0.0625 5.625 -3 6 C-2.505 5.38125 -2.01 4.7625 -1.5 4.125 C0.19222773 2.16119096 0.19222773 2.16119096 0 0 Z " fill="#2069F4" transform="translate(45,98)"/>
<path d="M0 0 C2.64 0.33 5.28 0.66 8 1 C4.3558226 3.4294516 2.28758728 3.16179575 -2 3 C-1.34 2.67 -0.68 2.34 0 2 C0 1.34 0 0.68 0 0 Z " fill="#095BF4" transform="translate(30,104)"/>
<path d="M0 0 C2.72426311 2.35277269 3.8141763 4.62496331 5 8 C3.68 8 2.36 8 1 8 C0.67 5.36 0.34 2.72 0 0 Z " fill="#D8E3FA" transform="translate(66,88)"/>
</svg>
